# xmcd
#
# Track frame offsets:
#	150
#	14537
#	34362
#	48850
#	62230
#	76992
#	93080
#	106552
#	122342
#	135330
#	147557
#	160202
#
# Disc length: 2331
#
# Revision: 1
# Processed by: cddbd v1.5.1PL0 Copyright (c) Steve Scherf et al.
# Submitted via: audiograbber 1.82.02
# Normalized: r0:DSETVAR1
#
DISCID=9209190c
DTITLE=Various Artist - New Stars Of Country
DYEAR=1900
DGENRE=Country
TTITLE0=Sweethearts Of The Rodeo - Chains Of Gold
TTITLE1=Bellamy Brothers - If I Said You Had A Beautiful Body (Would You Hold It Against Me)
TTITLE2=Earl Thomas Conley - Love Don't Care (Whose Heart It Breaks)
TTITLE3=Patty Loveless - It's What You Don't Do
TTITLE4=Nitty Gritty Dirt Band - Home Again In My Heart
TTITLE5=Lorrie Morgan - You're Getting To Me Again
TTITLE6=Kathy Mattea - Ball And Chain
TTITLE7=Lee Greenwood - Fool's Gold
TTITLE8=Ronnie MacDowell - Wandering Eyes
TTITLE9=Forester Sisters - Dixie Man
TTITLE10=Kieran Kane - You're The Best
TTITLE11=Eddy Raven - Who Do You Know In California
EXTD=
EXTT0=
EXTT1=
EXTT2=
EXTT3=
EXTT4=
EXTT5=
EXTT6=
EXTT7=
EXTT8=
EXTT9=
EXTT10=
EXTT11=
PLAYORDER=
